<svg width="47" height="34" viewBox="0 0 47 34" fill="none" xmlns="http://www.w3.org/2000/svg">
<rect width="47" height="34" rx="10" fill="#A6AEB5" fill-opacity="0.14"/>
<path d="M12.8636 11.1667H34.1364V13.5H12.8636V11.1667ZM12.8636 25.1667H34.1364V27.5H12.8636V25.1667ZM12.8636 13.5H15.2273V25.1667H12.8636V13.5ZM31.7727 13.5H34.1364V25.1667H31.7727V13.5ZM10.5 18.1667H12.8636V20.5H10.5V18.1667ZM34.1364 18.1667H36.5V20.5H34.1364V18.1667ZM22.3182 8.83333H24.6818V11.1667H22.3182V8.83333ZM17.5909 6.5H22.3182V8.83333H17.5909V6.5ZM18.7727 17H21.1364V21.6667H18.7727V17ZM25.8636 17H28.2273V21.6667H25.8636V17Z" fill="white"/>
</svg>
